<svg width="70" height="70" viewBox="0 0 70 70" fill="none" xmlns="http://www.w3.org/2000/svg">
<g clip-path="url(#clip0_1_2)">
<g clip-path="url(#clip1_1_2)">
<path d="M68.5858 8.46421C69.3668 7.68317 69.3668 6.41683 68.5858 5.63579L64.3642 1.41421C63.5832 0.633163 62.3168 0.633165 61.5358 1.41421L36.4142 26.5358C35.6332 27.3168 34.3668 27.3168 33.5858 26.5358L8.46421 1.41421C7.68317 0.633166 6.41683 0.633165 5.63579 1.41421L1.41421 5.63579C0.633163 6.41684 0.633165 7.68316 1.41421 8.46421L26.5358 33.5858C27.3168 34.3668 27.3168 35.6332 26.5358 36.4142L1.41421 61.5358C0.633166 62.3168 0.633165 63.5832 1.41421 64.3642L5.63579 68.5858C6.41684 69.3668 7.68316 69.3668 8.46421 68.5858L33.5858 43.4642C34.3668 42.6832 35.6332 42.6832 36.4142 43.4642L61.5358 68.5858C62.3168 69.3668 63.5832 69.3668 64.3642 68.5858L68.5858 64.3642C69.3668 63.5832 69.3668 62.3168 68.5858 61.5358L43.4642 36.4142C42.6832 35.6332 42.6832 34.3668 43.4642 33.5858L68.5858 8.46421Z" fill="black"/>
</g>
</g>
<defs>
<clipPath id="clip0_1_2">
<rect width="70" height="70" rx="10" fill="white"/>
</clipPath>
<clipPath id="clip1_1_2">
<rect width="100" height="100" fill="white" transform="translate(-15 -15)"/>
</clipPath>
</defs>
</svg>
